<svg width="24" height="24" viewBox="0 0 24 24" fill="none" xmlns="http://www.w3.org/2000/svg">
<path d="M6.1429 12.5714C5.82731 12.5714 5.57147 12.3156 5.57147 12C5.57147 11.6844 5.82731 11.4286 6.1429 11.4286" stroke="#5C5F6A" stroke-width="1.8" stroke-linecap="round" stroke-linejoin="round"/>
<path d="M6.1429 12.5714C6.45849 12.5714 6.71433 12.3156 6.71433 12C6.71433 11.6844 6.45849 11.4286 6.1429 11.4286" stroke="#5C5F6A" stroke-width="1.8" stroke-linecap="round" stroke-linejoin="round"/>
<path d="M12 12.5714C11.6845 12.5714 11.4286 12.3156 11.4286 12C11.4286 11.6844 11.6845 11.4286 12 11.4286" stroke="#5C5F6A" stroke-width="1.8" stroke-linecap="round" stroke-linejoin="round"/>
<path d="M12 12.5714C12.3156 12.5714 12.5715 12.3156 12.5715 12C12.5715 11.6844 12.3156 11.4286 12 11.4286" stroke="#5C5F6A" stroke-width="1.8" stroke-linecap="round" stroke-linejoin="round"/>
<path d="M17.8571 12.5714C17.5415 12.5714 17.2857 12.3156 17.2857 12C17.2857 11.6844 17.5415 11.4286 17.8571 11.4286" stroke="#5C5F6A" stroke-width="1.8" stroke-linecap="round" stroke-linejoin="round"/>
<path d="M17.8571 12.5714C18.1728 12.5714 18.4286 12.3156 18.4286 12C18.4286 11.6844 18.1728 11.4286 17.8571 11.4286" stroke="#5C5F6A" stroke-width="1.8" stroke-linecap="round" stroke-linejoin="round"/>
</svg>
